<?xml version="1.0" encoding="UTF-8"?>
<svg version="1.1" xmlns="http://www.w3.org/2000/svg" width="1024" height="1024">
<path d="M0 0 C337.92 0 675.84 0 1024 0 C1024 337.92 1024 675.84 1024 1024 C686.08 1024 348.16 1024 0 1024 C0 686.08 0 348.16 0 0 Z " fill="#020201" transform="translate(0,0)"/>
<path d="M0 0 C3.79734263 1.26578088 4.78908048 2.93472291 7.25 6.0625 C9.8953787 9.38945776 12.54450197 12.63710663 15.4375 15.75 C20.64686211 21.6467085 24.76656866 28.38984563 29 35 C29.70511719 36.09957031 30.41023437 37.19914062 31.13671875 38.33203125 C33.14199709 41.5270818 35.0855729 44.74974547 37 48 C37.64582031 49.08925781 38.29164063 50.17851562 38.95703125 51.30078125 C68.10999831 102.18884085 71.08382384 165.10829568 56.84155273 220.92211914 C48.31399265 252.11067441 33.90414578 280.62744448 14 306 C13.28972656 306.92425781 12.57945312 307.84851563 11.84765625 308.80078125 C-1.42128106 325.81432664 -17.02534308 341.92202637 -34.36767578 354.7734375 C-35.96556733 355.97412657 -37.5283297 357.22111804 -39.08984375 358.46875 C-60.75842382 375.73803449 -85.4723543 388.50269338 -111 399 C-111.81774902 399.34047363 -112.63549805 399.68094727 -113.47802734 400.03173828 C-128.26881377 406.16044916 -143.33142109 410.37293551 -158.98828125 413.65698242 C-162.05205378 414.30478976 -165.01187153 415.00406623 -167.9765625 416.01953125 C-213.80228521 430.88032763 -272.30976975 422.15936165 -318.0625 410.5625 C-319.15699463 410.28623779 -320.25148926 410.00997559 -321.37915039 409.7253418 C-328.12361676 407.95161314 -334.56546327 405.74986014 -341.03735352 403.15161133 C-343.95444727 402.01770682 -346.88588713 401.04989795 -349.875 400.125 C-357.21256928 397.70140755 -364.09726018 394.4388302 -371 391 C-371.86093262 390.57154785 -372.72186523 390.1430957 -373.60888672 389.70166016 C-387.23541852 382.86814858 -400.3367502 375.49134038 -413 367 C-413.64259766 366.56977539 -414.28519531 366.13955078 -414.94726562 365.69628906 C-424.19348701 359.44264092 -432.67930695 352.4293637 -441 345 C-441.80099121 344.28577881 -441.80099121 344.28577881 -442.61816406 343.55712891 C-452.29677629 334.88832854 -461.59434109 325.91681242 -470 316 C-470.730979 315.15091064 -471.46195801 314.30182129 -472.21508789 313.42700195 C-478.28829846 306.28286878 -483.764982 298.89352755 -488.9375 291.0625 C-489.51520645 290.19383301 -489.51520645 290.19383301 -490.10458374 289.30761719 C-497.1997483 278.60914917 -503.48509136 267.60216383 -509 256 C-509.40976074 255.14994385 -509.81952148 254.2998877 -510.24169922 253.42407227 C-517.71095776 237.53646254 -522.68439976 220.33291456 -526 203.125 C-526.19529297 202.11171631 -526.39058594 201.09843262 -526.59179688 200.05444336 C-529.01530217 186.4910252 -529.21062119 172.83619561 -529.24023438 159.09814453 C-529.24991125 156.39974786 -529.28103963 153.7021247 -529.3125 151.00390625 C-529.38638172 138.74700485 -528.17985481 127.05306817 -526 115 C-525.85485962 114.18146545 -525.70971924 113.36293091 -525.56018066 112.51959229 C-523.11582347 98.83112406 -518.94667052 85.98561693 -514 73 C-513.72317383 72.2668457 -513.44634766 71.53369141 -513.16113281 70.77832031 C-504.14363275 47.36902593 -487.51208522 17.25257619 -467 2 C-468.68469222 5.51402973 -470.64912644 8.83008935 -472.625 12.1875 C-489.72716256 41.98316325 -498.18766703 73.80616456 -498.3125 108.125 C-498.31511841 108.82020752 -498.31773682 109.51541504 -498.32043457 110.23168945 C-498.32584691 123.77026483 -496.80608922 136.74135175 -494 150 C-493.83983398 150.77746582 -493.67966797 151.55493164 -493.51464844 152.35595703 C-491.34959731 162.61351882 -487.94599911 172.31393205 -484 182 C-483.61569824 182.9580957 -483.61569824 182.9580957 -483.22363281 183.93554688 C-476.28306937 201.09101736 -467.37615936 217.38698895 -456 232 C-455.51837402 232.62293945 -455.03674805 233.24587891 -454.54052734 233.88769531 C-439.45465514 253.26660876 -422.56147875 270.16955559 -403 285 C-402.00468262 285.76401123 -402.00468262 285.76401123 -400.98925781 286.54345703 C-383.72032415 299.73692235 -364.8791769 310.26720485 -345 319 C-344.030625 319.433125 -343.06125 319.86625 -342.0625 320.3125 C-339.06397615 321.60731712 -336.04328736 322.81380958 -333 324 C-332.2575 324.29374512 -331.515 324.58749023 -330.75 324.89013672 C-304.42532981 335.21948485 -275.39154292 342.43027004 -247 343 C-246.01 343.02578125 -245.02 343.0515625 -244 343.078125 C-203.33767915 344.01938243 -163.47996 337.97567483 -126 322 C-125.21028809 321.66564941 -124.42057617 321.33129883 -123.60693359 320.98681641 C-113.10942938 316.5172357 -102.92827937 311.62415826 -93 306 C-92.09435303 305.48832275 -92.09435303 305.48832275 -91.17041016 304.96630859 C-69.70679491 292.72663211 -50.37222818 277.55010082 -33 260 C-28 255 -28 255 -26.0703125 253.17578125 C-4.70164782 232.6055898 11.35053567 205.46176664 22 178 C22.33161133 177.14921875 22.66322266 176.2984375 23.00488281 175.421875 C28.41037811 161.25350141 31.08946055 147.01157525 33 132 C33.103125 131.23824463 33.20625 130.47648926 33.3125 129.69165039 C38.61453812 87.57358509 27.45622933 42.32313825 4 7 C2.67518731 5.32655239 1.34592097 3.65651812 0 2 C0 1.34 0 0.68 0 0 Z " fill="#BE8D36" transform="translate(744,348)"/>
<path d="M0 0 C3.79734263 1.26578088 4.78908048 2.93472291 7.25 6.0625 C9.8953787 9.38945776 12.54450197 12.63710663 15.4375 15.75 C21.92689822 23.12086215 28.71813965 31.95943937 31.24609375 41.55859375 C32.05485428 44.17763692 33.16645593 46.57595495 34.33789062 49.05004883 C50.0653112 82.6728829 53.71287653 122.56518016 48 159 C47.78996338 160.3619751 47.78996338 160.3619751 47.57568359 161.75146484 C38.12961401 220.34063786 5.41041536 276.70743856 -41.19921875 313.7578125 C-44.10873526 316.08704887 -46.92359048 318.50837696 -49.75 320.9375 C-61.42389007 330.64825837 -74.46811533 338.28597174 -87.68164062 345.69921875 C-89.15731846 346.52718964 -90.63029762 347.36000255 -92.09960938 348.19921875 C-145.42327 378.56624025 -211.38099348 389.64606605 -272 381 C-273.06395996 380.8546582 -274.12791992 380.70931641 -275.22412109 380.55957031 C-317.47374256 374.61126053 -360.93196777 358.71956631 -396 334 C-396.9075 333.39027344 -397.815 332.78054688 -398.75 332.15234375 C-409.30746861 324.9955982 -419.20599338 316.94125615 -428.546875 308.26953125 C-430.70242371 306.27530546 -432.89486135 304.34716597 -435.125 302.4375 C-442.33945022 296.13403942 -448.7273302 289.33963 -454.69921875 281.8515625 C-456.20692969 279.98292246 -457.75055827 278.14257833 -459.33203125 276.3359375 C-479.90667193 252.73659197 -494.29741134 223.58738626 -504 194 C-504.26055176 193.22962402 -504.52110352 192.45924805 -504.78955078 191.66552734 C-508.96705971 179.23901589 -511.32936902 167.07703074 -512.70629883 154.04272461 C-512.96623878 151.80462282 -512.96623878 151.80462282 -514 149 C-514.10968802 147.64997609 -514.16849009 146.29541526 -514.19287109 144.94116211 C-514.20870239 144.1234584 -514.22453369 143.3057547 -514.24084473 142.46327209 C-514.25160034 141.57691574 -514.26235596 140.69055939 -514.2734375 139.77734375 C-514.28596558 138.85267807 -514.29849365 137.92801239 -514.31140137 136.97532654 C-514.53174479 116.7730634 -514.46146466 97.60328143 -509 78 C-508.78601563 77.18708496 -508.57203125 76.37416992 -508.3515625 75.53662109 C-506.8493072 69.91359604 -505.01910904 64.45699738 -503 59 C-502.61038086 57.94071289 -502.22076172 56.88142578 -501.81933594 55.79003906 C-496.65316721 41.95778776 -491.53686243 29.37324857 -482 18 C-481.20335937 16.97777344 -480.40671875 15.95554687 -479.5859375 14.90234375 C-475.74684832 10.02965364 -471.98449311 5.70641795 -467 2 C-468.68469222 5.51402973 -470.64912644 8.83008935 -472.625 12.1875 C-489.72716256 41.98316325 -498.18766703 73.80616456 -498.3125 108.125 C-498.31511841 108.82020752 -498.31773682 109.51541504 -498.32043457 110.23168945 C-498.32584691 123.77026483 -496.80608922 136.74135175 -494 150 C-493.83983398 150.77746582 -493.67966797 151.55493164 -493.51464844 152.35595703 C-491.34959731 162.61351882 -487.94599911 172.31393205 -484 182 C-483.74379883 182.63873047 -483.48759766 183.27746094 -483.22363281 183.93554688 C-476.28306937 201.09101736 -467.37615936 217.38698895 -456 232 C-455.51837402 232.62293945 -455.03674805 233.24587891 -454.54052734 233.88769531 C-439.45465514 253.26660876 -422.56147875 270.16955559 -403 285 C-402.00468262 285.76401123 -402.00468262 285.76401123 -400.98925781 286.54345703 C-383.72032415 299.73692235 -364.8791769 310.26720485 -345 319 C-344.030625 319.433125 -343.06125 319.86625 -342.0625 320.3125 C-339.06397615 321.60731712 -336.04328736 322.81380958 -333 324 C-332.2575 324.29374512 -331.515 324.58749023 -330.75 324.89013672 C-304.42532981 335.21948485 -275.39154292 342.43027004 -247 343 C-246.01 343.02578125 -245.02 343.0515625 -244 343.078125 C-203.33767915 344.01938243 -163.47996 337.97567483 -126 322 C-125.21028809 321.66564941 -124.42057617 321.33129883 -123.60693359 320.98681641 C-113.10942938 316.5172357 -102.92827937 311.62415826 -93 306 C-92.09435303 305.48832275 -92.09435303 305.48832275 -91.17041016 304.96630859 C-69.70679491 292.72663211 -50.37222818 277.55010082 -33 260 C-28 255 -28 255 -26.0703125 253.17578125 C-4.70164782 232.6055898 11.35053567 205.46176664 22 178 C22.33161133 177.14921875 22.66322266 176.2984375 23.00488281 175.421875 C28.41037811 161.25350141 31.08946055 147.01157525 33 132 C33.103125 131.23824463 33.20625 130.47648926 33.3125 129.69165039 C38.61453812 87.57358509 27.45622933 42.32313825 4 7 C2.67518731 5.32655239 1.34592097 3.65651812 0 2 C0 1.34 0 0.68 0 0 Z " fill="#FCE57C" transform="translate(744,348)"/>
<path d="M0 0 C0.66 0 1.32 0 2 0 C11.81474501 22.87388942 11.81474501 22.87388942 15 32.9375 C18.38620874 43.62812103 22.7032128 53.94314547 26.92236328 64.32617188 C28.15702738 67.38961575 29.3384837 70.47063454 30.5 73.5625 C33.20678609 80.69069114 36.1950418 87.70414473 39.171875 94.72290039 C41.81932378 101.00901537 44.27875104 107.35053184 46.65214539 113.74398804 C49.5509724 121.52884453 52.64957535 129.2312459 55.75 136.9375 C56.3676231 138.47681122 56.98505181 140.01620044 57.60229492 141.55566406 C59.12224661 145.34573738 60.6439163 149.1351177 62.16619873 152.92425537 C67.62681385 166.51843293 73.07048078 180.11800637 78.39135742 193.76757812 C80.64792867 199.5543139 82.92033357 205.33449512 85.20703125 211.109375 C95.38539468 236.81860087 95.38539468 236.81860087 99.375 247.375 C99.66713379 248.1287793 99.95926758 248.88255859 100.26025391 249.65917969 C102.11666731 254.64999807 102.11666731 254.64999807 101 258 C91.67754643 252.25919753 82.44498701 246.41069641 73.39233398 240.25073242 C69.25401591 237.44441148 65.08535298 234.95058145 60.6875 232.5625 C56.57609319 229.93353499 55.15108846 227.78129804 53.5546875 223.1953125 C53.13952881 222.03813721 52.72437012 220.88096191 52.29663086 219.6887207 C51.86874268 218.47144287 51.44085449 217.25416504 51 216 C50.08812947 213.5771232 49.1700953 211.1565577 48.24609375 208.73828125 C47.0722765 205.63593302 45.89857819 202.53354149 44.72680664 199.43041992 C41.89106011 191.92276879 39.01055345 184.43926275 36 177 C33.09684728 169.80677897 30.28037523 162.58140314 27.48144531 155.34716797 C21.82422788 140.72776971 16.11190177 126.13001271 10.31848145 111.56402588 C9.60728571 109.77417379 8.89788799 107.9836062 8.19030762 106.19232178 C7.1996696 103.68605082 6.20234884 101.18254552 5.203125 98.6796875 C4.9078894 97.92929199 4.61265381 97.17889648 4.30847168 96.40576172 C2.69375008 92.36671221 2.69375008 92.36671221 0 89 C-9.25084801 112.30786923 -18.49660862 135.6168693 -27.55908203 158.99874878 C-30.99290025 167.85769231 -34.457461 176.70196137 -38.01293945 185.51293945 C-41.75710467 194.82457677 -45.3521691 204.19482583 -48.96533203 213.55786133 C-49.21732361 214.21076141 -49.46931519 214.8636615 -49.72894287 215.53634644 C-50.41919674 217.32540643 -51.10878959 219.11472143 -51.79833984 220.90405273 C-52.1948877 221.92571533 -52.59143555 222.94737793 -53 224 C-53.32226562 224.91249512 -53.64453125 225.82499023 -53.9765625 226.76513672 C-55.5589095 230.22048128 -58.5033904 231.74439281 -61.625 233.6875 C-62.29015625 234.11611328 -62.9553125 234.54472656 -63.640625 234.98632812 C-65.75095501 236.33986376 -67.87317306 237.67255991 -70 239 C-70.66999023 239.41975098 -71.33998047 239.83950195 -72.03027344 240.27197266 C-74.67729143 241.92879063 -77.32606426 243.58263161 -79.98095703 245.22680664 C-87.10111942 249.64739382 -94.05523138 254.31028556 -101 259 C-102 257 -102 257 -101.03466797 253.97607422 C-100.52857946 252.66579903 -100.01368793 251.35890525 -99.4921875 250.0546875 C-99.21548218 249.34568298 -98.93877686 248.63667847 -98.65368652 247.90618896 C-97.73517242 245.55934795 -96.80531624 243.21718502 -95.875 240.875 C-95.23082344 239.237648 -94.58711127 237.60011323 -93.94384766 235.96240234 C-88.51091784 222.16309482 -82.92896267 208.42467745 -77.32029724 194.69610596 C-73.40182338 185.09572005 -69.57041844 175.46037103 -65.72836304 165.82922363 C-63.6035502 160.50540805 -61.47087448 155.18476625 -59.33650208 149.86477661 C-57.54638449 145.40256507 -55.75767968 140.93978771 -53.96902466 136.47698975 C-53.08459358 134.27122374 -52.19957931 132.06569148 -51.31393433 129.8604126 C-47.07629982 119.3073409 -42.86393907 108.75500783 -38.92147827 98.08772278 C-37.46697651 94.17458357 -35.87126222 90.37267095 -34.13085938 86.58056641 C-31.11998329 79.70989277 -28.48811283 72.67016697 -25.75 65.6875 C-24.4045156 62.26267859 -23.0578801 58.83831065 -21.7109375 55.4140625 C-21.38473419 54.58429398 -21.05853088 53.75452545 -20.72244263 52.89961243 C-18.31089986 46.7717889 -15.85213401 40.66408532 -13.375 34.5625 C-10.68058848 27.90994512 -8.36133568 21.19816601 -6.1640625 14.3671875 C-4.45201364 9.41488511 -2.2983671 4.70431734 0 0 Z " fill="#FBDF75" transform="translate(511,294)"/>
<path d="M0 0 C2.94247896 2.94247896 3.50960147 6.44415156 4.70703125 10.37109375 C5.76314181 13.33522277 6.93153392 16.05793413 8.265625 18.8984375 C11.61859222 26.15754678 14.25223865 33.66447182 16.9375 41.1875 C17.94489276 43.99410987 18.95470832 46.799845 19.96484375 49.60546875 C20.2125351 50.29446259 20.46022644 50.98345642 20.71542358 51.69332886 C22.52710261 56.72136423 24.3775687 61.73402791 26.25390625 66.73828125 C26.62285255 67.72262398 26.62285255 67.72262398 26.99925232 68.72685242 C28.01549243 71.4268627 29.04640319 74.10956335 30.17163086 76.76635742 C31 79 31 79 31 82 C31.81082031 82.23332031 32.62164063 82.46664062 33.45703125 82.70703125 C37.8053425 84.29390118 41.66666354 86.41248069 45.6875 88.6875 C46.49131104 89.13883301 47.29512207 89.59016602 48.12329102 90.05517578 C53.16614949 92.90705525 58.11648564 95.8598934 62.96875 99.02734375 C66.26459483 101.17219122 69.59049583 103.26495043 72.9206543 105.35595703 C91.95902161 117.31934276 110.50086719 129.86482071 128 144 C128.93070313 144.74765625 129.86140625 145.4953125 130.8203125 146.265625 C141.09020364 154.58932686 151.08644353 163.25636634 161 172 C160.67 172.66 160.34 173.32 160 174 C158.77604167 173.32682292 157.55208333 172.65364583 156.328125 171.98046875 C155.52761719 171.54025391 154.72710938 171.10003906 153.90234375 170.64648438 C152.11827008 169.66511248 150.33441969 168.68333458 148.55078125 167.70117188 C143.8254191 165.09990309 139.0965823 162.50542401 134.359375 159.92578125 C133.01117676 159.18968628 133.01117676 159.18968628 131.63574219 158.4387207 C129.90858896 157.49595357 128.18011769 156.55559616 126.45019531 155.61791992 C125.66225586 155.18713135 124.87431641 154.75634277 124.0625 154.3125 C123.37285156 153.93738281 122.68320312 153.56226563 121.97265625 153.17578125 C119.86170435 151.91757032 117.94003868 150.50602555 116 149 C116.28143749 152.95912874 116.57704444 156.91708284 116.875 160.875 C116.95363281 161.98359375 117.03226563 163.0921875 117.11328125 164.234375 C117.56557605 170.14899929 118.29689284 175.8036974 119.55419922 181.59716797 C120.32414695 185.7471272 120.46660923 189.91444529 120.625 194.125 C120.66367187 194.98609375 120.70234375 195.8471875 120.7421875 196.734375 C120.8349985 198.82262251 120.9185099 200.91128008 121 203 C118.30862953 199.71206261 116.59758167 196.27287605 114.8125 192.42578125 C114.19601642 191.11246231 113.57880081 189.7994868 112.9609375 188.48681641 C112.64092773 187.80435852 112.32091797 187.12190063 111.99121094 186.41876221 C106.15350911 174.01400529 100.09049319 162.11960192 92 151 C91.37996094 150.13375 90.75992188 149.2675 90.12109375 148.375 C88.48029084 146.18218683 86.77445848 144.08576698 85 142 C84.2884375 141.1440625 83.576875 140.288125 82.84375 139.40625 C76.7905795 132.40972826 70.14710043 126.86813782 62.77148438 121.33642578 C61.05687279 120.04290541 59.36172065 118.72799853 57.671875 117.40234375 C50.30989555 111.6376183 42.7247307 106.27185413 35 101 C33.774981 100.1473552 32.55104274 99.29315583 31.328125 98.4375 C30.72935547 98.01927979 30.13058594 97.60105957 29.51367188 97.17016602 C27.83680987 95.99817318 26.16057521 94.82528289 24.484375 93.65234375 C22.35850468 91.90770108 22.35850468 91.90770108 21 92 C20.69707031 93.258125 20.39414062 94.51625 20.08203125 95.8125 C17.73022741 105.46323413 15.17549886 114.97579045 12.12890625 124.4296875 C10.84841681 128.4794015 9.73161072 132.55476806 8.67578125 136.66796875 C8 139 8 139 7.01171875 141.46484375 C5.96976297 144.07576768 5.21628648 146.65778279 4.5 149.375 C3.37460003 153.59667806 2.21257826 157.80261371 1 162 C-1.16414879 158.75377681 -2.00380361 156.06298071 -3.1015625 152.32421875 C-3.29927246 151.65441986 -3.49698242 150.98462097 -3.70068359 150.29452515 C-4.34795909 148.09384525 -4.98695007 145.890871 -5.625 143.6875 C-5.84387878 142.93733612 -6.06275757 142.18717224 -6.28826904 141.41427612 C-9.52201026 130.33000307 -12.63562582 119.21511195 -15.625 108.0625 C-15.96740723 106.79043701 -16.30981445 105.51837402 -16.66259766 104.20776367 C-16.97245605 103.03705322 -17.28231445 101.86634277 -17.6015625 100.66015625 C-17.87307129 99.63543213 -18.14458008 98.61070801 -18.42431641 97.55493164 C-19 95 -19 95 -19 92 C-29.04915436 97.87680228 -38.42778989 104.49820659 -47.79833984 111.39355469 C-49.83666943 112.88082555 -51.89131118 114.34018577 -53.95703125 115.7890625 C-72.97410124 129.21606489 -87.56723433 145.37713489 -100 165 C-100.59296875 165.91652344 -101.1859375 166.83304688 -101.796875 167.77734375 C-106.71413472 175.75032915 -110.44286206 184.27638461 -114.26928711 192.81225586 C-114.72311768 193.82425049 -115.17694824 194.83624512 -115.64453125 195.87890625 C-116.05034424 196.7922876 -116.45615723 197.70566895 -116.87426758 198.64672852 C-118 201 -118 201 -120 204 C-120.16521983 196.70339188 -119.75890059 189.734426 -118.6875 182.51953125 C-118.55432373 181.58066574 -118.42114746 180.64180023 -118.28393555 179.67448425 C-117.86310964 176.71941181 -117.43175904 173.76599265 -117 170.8125 C-116.71023536 168.79111615 -116.42116674 166.7696324 -116.1328125 164.74804688 C-115.42990238 159.83084158 -114.71755896 154.91508807 -114 150 C-119.02696069 152.63106322 -124.05345074 155.26300963 -129.078125 157.8984375 C-132.87659628 159.88983277 -136.67864607 161.8740759 -140.484375 163.8515625 C-142.17709751 164.73434782 -143.86980645 165.61715915 -145.5625 166.5 C-146.74743042 167.11270752 -146.74743042 167.11270752 -147.95629883 167.73779297 C-151.5220524 169.60187779 -154.8837611 171.42104367 -158 174 C-158.66 173.67 -159.32 173.34 -160 173 C-151.4154781 164.71978646 -142.75740035 156.77462044 -133.27734375 149.53125 C-130.20241102 147.18093731 -127.2554233 144.70184224 -124.3125 142.1875 C-111.59484645 131.52162789 -97.937652 121.99357399 -84 113 C-83.1656543 112.45843262 -82.33130859 111.91686523 -81.47167969 111.35888672 C-70.4590077 104.22133563 -59.38558334 97.33194623 -47.87011719 91.03662109 C-45.89134755 89.93977307 -43.93260545 88.81263076 -41.9765625 87.67578125 C-41.32880859 87.2998584 -40.68105469 86.92393555 -40.01367188 86.53662109 C-38.23972733 85.50426608 -36.46746091 84.46902898 -34.6953125 83.43359375 C-32 82 -32 82 -30 82 C-29.84144531 81.43837158 -29.68289063 80.87674316 -29.51953125 80.2980957 C-27.34283672 72.80217908 -24.70816305 65.50565821 -22 58.1875 C-21.51667999 56.87576349 -21.03344596 55.5639953 -20.55029297 54.25219727 C-13.85597013 36.109403 -6.95209311 18.04534483 0 0 Z " fill="#F9D264" transform="translate(511,436)"/>
<path d="M0 0 C0.66 0 1.32 0 2 0 C2.07516846 0.7528125 2.15033691 1.505625 2.2277832 2.28125 C2.58635262 5.85447685 2.94873562 9.42729817 3.3125 13 C3.41229156 13.98288498 3.41229156 13.98288498 3.51409912 14.98562622 C4.4149108 23.82287156 5.447938 32.63231207 6.625 41.4375 C8.10202844 52.60646922 8.67872357 63.74424652 9 75 C10.87580676 73.56354333 12.75071876 72.12594538 14.625 70.6875 C15.20169434 70.24543213 15.77838867 69.80336426 16.37255859 69.34790039 C19.56070266 66.89782411 22.7305805 64.42788206 25.875 61.921875 C26.50196777 61.42341064 27.12893555 60.92494629 27.77490234 60.41137695 C28.99159836 59.44209827 30.20555501 58.46936918 31.41650391 57.49291992 C33.94083948 55.4846431 35.91232111 54.0292263 39 53 C39 52.34 39 51.68 39 51 C39.66 51 40.32 51 41 51 C39.7235038 53.70521134 38.32915177 56.03742889 36.49609375 58.3984375 C36.00657227 59.03652344 35.51705078 59.67460937 35.01269531 60.33203125 C34.49288086 61.00621094 33.97306641 61.68039063 33.4375 62.375 C27.87521597 69.67444369 22.8267746 77.19915216 18 85 C19.08087891 85.07347656 19.08087891 85.07347656 20.18359375 85.1484375 C28.52093097 85.72894837 36.85481115 86.35649842 45.1875 87 C46.29859131 87.0829834 47.40968262 87.1659668 48.55444336 87.25146484 C50.12657593 87.37448975 50.12657593 87.37448975 51.73046875 87.5 C52.67301514 87.5721875 53.61556152 87.644375 54.58666992 87.71875 C57 88 57 88 60 89 C61.84371272 89.2153564 63.69253981 89.38829681 65.54296875 89.53515625 C66.61611328 89.62216797 67.68925781 89.70917969 68.79492188 89.79882812 C69.91447266 89.88583984 71.03402344 89.97285156 72.1875 90.0625 C73.31865234 90.15337891 74.44980469 90.24425781 75.61523438 90.33789062 C78.40990736 90.56193614 81.20481111 90.78250144 84 91 C84 91.66 84 92.32 84 93 C80.72241204 93.94308878 77.58703034 94.24649341 74.1875 94.46484375 C73.03918701 94.54154297 71.89087402 94.61824219 70.70776367 94.69726562 C69.48420166 94.77654297 68.26063965 94.85582031 67 94.9375 C50.25341619 96.0800691 33.61884439 97.63307368 17 100 C22.8488207 110.73005872 29.1441886 121.04755056 35.86621094 131.25146484 C37.3027447 133.46689438 38.66444982 135.72248894 40 138 C36.28731906 136.45872649 34.01884302 134.19156766 31.25 131.3125 C26.99260301 126.97465801 22.62368181 122.93783567 18 119 C16.84299905 117.9917465 15.68682331 116.98254567 14.53125 115.97265625 C13.27102147 114.87738765 12.01060347 113.78233703 10.75 112.6875 C10.14704102 112.15914551 9.54408203 111.63079102 8.92285156 111.08642578 C6.08731799 108.63755588 3.51074925 106.43384561 0 105 C-0.81082031 105.76183594 -1.62164062 106.52367187 -2.45703125 107.30859375 C-8.52380803 112.97682315 -14.66454447 118.42370405 -21.14453125 123.62109375 C-26.6290208 128.19025126 -31.79910814 133.11331146 -37 138 C-37.66 137.67 -38.32 137.34 -39 137 C-38.30777344 136.22140625 -37.61554688 135.4428125 -36.90234375 134.640625 C-33.30543025 130.32078379 -30.4775345 125.54361228 -27.5625 120.75 C-26.74168945 119.41388672 -26.74168945 119.41388672 -25.90429688 118.05078125 C-22.22944176 112.05794059 -18.60709938 106.03381192 -15 100 C-15.90540527 99.92483154 -15.90540527 99.92483154 -16.82910156 99.84814453 C-36.66622575 98.18055556 -36.66622575 98.18055556 -43 97 C-51.35096016 95.45397676 -59.85222203 94.9558877 -68.30566406 94.23779297 C-72.54101335 93.86399538 -76.77058648 93.43529669 -81 93 C-81 92.34 -81 91.68 -81 91 C-73.17174938 89.9277795 -65.39706655 88.96067142 -57.5 88.5625 C-49.44543792 88.13143325 -41.49997774 87.11988029 -33.51171875 86.01586914 C-27.61003981 85.22483674 -21.95502194 84.85836039 -16 85 C-23.74611852 73.79381424 -31.54008517 62.68210444 -40 52 C-36.63061773 52 -36.22307287 52.33237374 -33.7421875 54.37890625 C-33.12061768 54.88494385 -32.49904785 55.39098145 -31.85864258 55.91235352 C-30.8767395 56.72917603 -30.8767395 56.72917603 -29.875 57.5625 C-28.52248484 58.66709466 -27.1696214 59.771263 -25.81640625 60.875 C-25.16172363 61.41253906 -24.50704102 61.95007813 -23.83251953 62.50390625 C-21.51957663 64.39222415 -19.17295582 66.23403339 -16.8125 68.0625 C-16.15894531 68.56910156 -15.50539063 69.07570313 -14.83203125 69.59765625 C-12.8977258 71.07828664 -10.9496188 72.53961612 -9 74 C-7.23801796 65.45317119 -6.35775581 56.93846659 -5.625 48.25 C-4.21039963 32.10199127 -2.19517697 16.0588347 0 0 Z " fill="#F7E287" transform="translate(511,165)"/>
<path d="M0 0 C4.56775602 2.10116777 8.67268022 4.97604374 12.8671875 7.72265625 C15.84149016 9.65659124 18.77319367 11.51566909 22 13 C21.38125 14.5159375 21.38125 14.5159375 20.75 16.0625 C18.88574876 21.05109822 17.58543052 26.15168299 16.2421875 31.30078125 C14.68008408 37.2587869 13.02765463 43.19159389 11.375 49.125 C11.07368164 50.21611084 10.77236328 51.30722168 10.46191406 52.43139648 C10.1728418 53.46723877 9.88376953 54.50308105 9.5859375 55.5703125 C9.19994385 56.95887451 9.19994385 56.95887451 8.80615234 58.37548828 C8.00420702 60.98630363 7.03182003 63.47270405 6 66 C5.47371053 67.78412131 4.97415066 69.57631976 4.5 71.375 C3.37460003 75.59667806 2.21257826 79.80261371 1 84 C-1.16414879 80.75377681 -2.00380361 78.06298071 -3.1015625 74.32421875 C-3.39812744 73.31952042 -3.39812744 73.31952042 -3.70068359 72.29452515 C-4.34795909 70.09384525 -4.98695007 67.890871 -5.625 65.6875 C-5.84387878 64.93733612 -6.06275757 64.18717224 -6.28826904 63.41427612 C-9.52201026 52.33000307 -12.63562582 41.21511195 -15.625 30.0625 C-15.96740723 28.79043701 -16.30981445 27.51837402 -16.66259766 26.20776367 C-16.97245605 25.03705322 -17.28231445 23.86634277 -17.6015625 22.66015625 C-17.87307129 21.63543213 -18.14458008 20.61070801 -18.42431641 19.55493164 C-19 17 -19 17 -19 14 C-19.66 13.67 -20.32 13.34 -21 13 C-20.47043701 12.67725098 -19.94087402 12.35450195 -19.39526367 12.02197266 C-16.99228554 10.55695409 -14.5898871 9.09098755 -12.1875 7.625 C-11.35412109 7.11710938 -10.52074219 6.60921875 -9.66210938 6.0859375 C-8.85966797 5.59609375 -8.05722656 5.10625 -7.23046875 4.6015625 C-6.49207764 4.15119629 -5.75368652 3.70083008 -4.99291992 3.23681641 C-3.3076477 2.19092775 -1.65032001 1.10021334 0 0 Z " fill="#FBCF5B" transform="translate(511,514)"/>
<path d="M0 0 C4.27710815 1.71084326 7.31539196 3.422975 11.0625 6 C14.30294598 8.22295411 17.42590379 10.35437297 21 12 C20.5875 13.010625 20.175 14.02125 19.75 15.0625 C17.88574876 20.05109822 16.58543052 25.15168299 15.2421875 30.30078125 C13.68008408 36.2587869 12.02765463 42.19159389 10.375 48.125 C10.07368164 49.21611084 9.77236328 50.30722168 9.46191406 51.43139648 C9.02830566 52.98515991 9.02830566 52.98515991 8.5859375 54.5703125 C8.3286084 55.49602051 8.0712793 56.42172852 7.80615234 57.37548828 C7.00435274 59.98582921 6.02748257 62.47157131 5 65 C4.58911437 66.59535222 4.21195834 68.19991364 3.875 69.8125 C3.70742188 70.60269531 3.53984375 71.39289063 3.3671875 72.20703125 C3.24601563 72.79871094 3.12484375 73.39039063 3 74 C2.67 73.01 2.34 72.02 2 71 C1.34 71 0.68 71 0 71 C0 47.57 0 24.14 0 0 Z " fill="#F1B344" transform="translate(512,515)"/>
<path d="M0 0 C3.79734263 1.26578088 4.78908048 2.93472291 7.25 6.0625 C10.05032726 9.57887186 12.870333 13.03150885 15.875 16.375 C21.88115166 23.21727486 21.88115166 23.21727486 22.1875 27.8125 C22.0946875 28.8953125 22.0946875 28.8953125 22 30 C20.02 30.99 20.02 30.99 18 32 C17.73896484 31.48203857 17.47792969 30.96407715 17.20898438 30.43041992 C12.49259391 21.12669959 7.88159316 12.14644509 1.3984375 3.93359375 C0 2 0 2 0 0 Z " fill="#F2E094" transform="translate(744,348)"/>
<path d="M0 0 C0.66 0 1.32 0 2 0 C2.71413279 8.02124152 3.14525497 15.94641862 3 24 C2.34 24.33 1.68 24.66 1 25 C-0.93330576 28.75920564 -1.19491883 31.80924525 -1 36 C-1.99 36.495 -1.99 36.495 -3 37 C-3.48167015 24.38737805 -2.04528428 12.43126684 0 0 Z " fill="#EBE6B4" transform="translate(511,165)"/>
<path d="M0 0 C0 3.60239403 -0.76393932 4.35227014 -2.8125 7.25 C-8.95158197 16.5596778 -13.3167236 26.9069732 -18 37 C-18.66 36.67 -19.32 36.34 -20 36 C-19.55527344 35.13117188 -19.11054688 34.26234375 -18.65234375 33.3671875 C-18.08644531 32.21476562 -17.52054687 31.06234375 -16.9375 29.875 C-16.36902344 28.73804688 -15.80054688 27.60109375 -15.21484375 26.4296875 C-13.70243038 23.10884438 -13.70243038 23.10884438 -14.640625 19.984375 C-15 17 -15 17 -12.83203125 13.7109375 C-11.84324668 12.58316715 -10.83592313 11.4714333 -9.8125 10.375 C-9.31685547 9.81554687 -8.82121094 9.25609375 -8.31054688 8.6796875 C-5.63843591 5.68635844 -2.86835324 2.80674183 0 0 Z " fill="#E2D78C" transform="translate(276,350)"/>
<path d="M0 0 C2.88387779 1.35216838 5.35417975 2.89752336 7.890625 4.8203125 C8.95410156 5.62275391 8.95410156 5.62275391 10.0390625 6.44140625 C10.76867187 6.99699219 11.49828125 7.55257812 12.25 8.125 C12.99507813 8.68832031 13.74015625 9.25164062 14.5078125 9.83203125 C16.34074811 11.21848254 18.17137013 12.60787768 20 14 C19.01 14.33 18.02 14.66 17 15 C16.01 15.495 16.01 15.495 15 16 C15.60183749 18.02045442 16.27306096 20.02111039 17 22 C17.66 22.33 18.32 22.66 19 23 C18.01 23 17.02 23 16 23 C14.44407079 21.04905775 13.09550052 19.15146805 11.75 17.0625 C10.95664863 15.86961328 10.16105541 14.67821466 9.36328125 13.48828125 C8.96834473 12.89740723 8.5734082 12.3065332 8.16650391 11.69775391 C6.00273996 8.54856711 3.60898815 5.58441158 1.21484375 2.609375 C0 1 0 1 0 0 Z " fill="#F2E69D" transform="translate(471,216)"/>
<path d="M0 0 C9.0598059 -0.12224626 17.97746114 0.16069406 27 1 C27 1.66 27 2.32 27 3 C23.9317362 3.89749822 21.20730024 4.11711768 18.015625 4.09765625 C17.08105469 4.09443359 16.14648438 4.09121094 15.18359375 4.08789062 C14.21550781 4.07951172 13.24742187 4.07113281 12.25 4.0625 C11.26644531 4.05798828 10.28289063 4.05347656 9.26953125 4.04882812 C6.84629209 4.03706483 4.42317727 4.02062684 2 4 C2 3.01 2 2.02 2 1 C1.34 0.67 0.68 0.34 0 0 Z " fill="#F6EDA7" transform="translate(568,255)"/>
<path d="M0 0 C0.66 0 1.32 0 2 0 C3.5056651 3.62267294 5.00356546 7.24850549 6.5 10.875 C7.14388672 12.42380859 7.14388672 12.42380859 7.80078125 14.00390625 C8.20683594 14.99003906 8.61289062 15.97617187 9.03125 16.9921875 C9.40830078 17.90339355 9.78535156 18.81459961 10.17382812 19.75341797 C11 22 11 22 11 24 C10.34 24 9.68 24 9 24 C7.9955866 21.7101766 6.99632388 19.4183401 6 17.125 C5.71382812 16.47402344 5.42765625 15.82304687 5.1328125 15.15234375 C3 10.2265625 3 10.2265625 3 8 C2.21625 8.495 1.4325 8.99 0.625 9.5 C-2 11 -2 11 -4 11 C-2.7874262 7.27566618 -1.49140021 3.62197194 0 0 Z " fill="#E6DC9B" transform="translate(511,294)"/>
<path d="M0 0 C0 3 0 3 -2.5 5.6875 C-3.325 6.450625 -4.15 7.21375 -5 8 C-4.34 8.33 -3.68 8.66 -3 9 C-3 9.66 -3 10.32 -3 11 C-5.4335567 12.3410005 -7.87135301 13.67294856 -10.3125 15 C-11.00279297 15.3815625 -11.69308594 15.763125 -12.40429688 16.15625 C-17.66015625 19 -17.66015625 19 -21 19 C-18.44038523 16.58026226 -15.87679983 14.16477147 -13.3125 11.75 C-12.59126953 11.06808594 -11.87003906 10.38617187 -11.12695312 9.68359375 C-7.52652647 6.29689105 -3.93037062 3.0078576 0 0 Z M-9 10 C-9.33 10.66 -9.66 11.32 -10 12 C-9.34 12 -8.68 12 -8 12 C-8.33 11.34 -8.66 10.68 -9 10 Z " fill="#E2B24F" transform="translate(372,590)"/>
<path d="M0 0 C3.86473719 1.28824573 4.93622873 3.12791348 7.4375 6.3125 C10.14388501 9.74241941 12.84481275 12.97418261 16 16 C15.67 16.99 15.34 17.98 15 19 C14.01 19.33 13.02 19.66 12 20 C11.63648438 19.3709375 11.27296875 18.741875 10.8984375 18.09375 C7.90664582 13.00003289 4.79102175 8.21030414 1.1015625 3.59375 C0 2 0 2 0 0 Z " fill="#F2E59D" transform="translate(744,348)"/>
<path d="M0 0 C2.48262432 2.48262432 3.07286975 4.61775287 4.1875 7.9375 C4.55230469 8.99839844 4.91710937 10.05929687 5.29296875 11.15234375 C6 14 6 14 5 17 C2 10.375 2 10.375 2 7 C-0.36543716 9.36543716 -1.27541323 11.57067205 -2.625 14.625 C-3.07101562 15.62789063 -3.51703125 16.63078125 -3.9765625 17.6640625 C-4.31429688 18.43492187 -4.65203125 19.20578125 -5 20 C-6.02826931 16.86332092 -5.99386675 15.16815258 -4.78515625 12.109375 C-4.37426758 11.04589844 -4.37426758 11.04589844 -3.95507812 9.9609375 C-3.66052734 9.23132813 -3.36597656 8.50171875 -3.0625 7.75 C-2.77181641 7.00492187 -2.48113281 6.25984375 -2.18164062 5.4921875 C-1.46426278 3.65758186 -0.73342561 1.82824935 0 0 Z " fill="#E9DE97" transform="translate(511,436)"/>
<path d="M0 0 C2.82782668 3.42710121 5.3225484 6.92717565 7.6875 10.6875 C8.28949219 11.64011719 8.89148438 12.59273438 9.51171875 13.57421875 C11 16 11 16 12 18 C7.92623969 16.38989473 5.23492931 13.46177729 2.25 10.375 C1.74339844 9.859375 1.23679687 9.34375 0.71484375 8.8125 C-0.52803902 7.54616661 -1.76465276 6.2736856 -3 5 C-2.01 3.35 -1.02 1.7 0 0 Z " fill="#E2CC75" transform="translate(539,285)"/>
<path d="M0 0 C4.07819457 0.12358165 5.88823286 1.63681686 8.625 4.4375 C9.19476562 5.05496094 9.76453125 5.67242188 10.3515625 6.30859375 C12.09189107 8.21199898 12.09189107 8.21199898 15 10 C14.67 10.66 14.34 11.32 14 12 C8.72 9.03 3.44 6.06 -2 3 C-1.34 2.67 -0.68 2.34 0 2 C0 1.34 0 0.68 0 0 Z " fill="#DAAB4A" transform="translate(657,598)"/>
<path d="M0 0 C2.97 0.495 2.97 0.495 6 1 C2.2052999 5.8619595 -1.93883895 10.42118737 -7 14 C-7.99 14 -8.98 14 -10 14 C-9.278125 13.175 -8.55625 12.35 -7.8125 11.5 C-4.80568437 7.90900304 -2.39507134 4.01556642 0 0 Z " fill="#E4CC6B" transform="translate(482,288)"/>
<path d="M0 0 C2.42705028 2.23487914 4.05926167 4.5096917 5.6875 7.375 C6.34298828 8.50035156 6.34298828 8.50035156 7.01171875 9.6484375 C8.11599474 12.27600329 8.18446068 14.17825015 8 17 C7.34 17 6.68 17 6 17 C4.99063464 14.921188 3.99282154 12.8367638 3 10.75 C2.443125 9.58984375 1.88625 8.4296875 1.3125 7.234375 C0 4 0 4 0 0 Z " fill="#CE9E46" transform="translate(774,386)"/>
<path d="M0 0 C1.2051933 3.61557991 0.74896968 4.14251394 -0.87109375 7.44921875 C-1.48500977 8.72055664 -1.48500977 8.72055664 -2.11132812 10.01757812 C-2.54896484 10.89865234 -2.98660156 11.77972656 -3.4375 12.6875 C-3.87126953 13.58017578 -4.30503906 14.47285156 -4.75195312 15.39257812 C-5.82591129 17.59950314 -6.908839 19.80154313 -8 22 C-8.66 21.67 -9.32 21.34 -10 21 C-9.55527344 20.11957031 -9.11054688 19.23914063 -8.65234375 18.33203125 C-8.08644531 17.17058594 -7.52054687 16.00914062 -6.9375 14.8125 C-6.36902344 13.66394531 -5.80054688 12.51539063 -5.21484375 11.33203125 C-3.95874027 7.88683423 -3.87257947 6.42091601 -5 3 C-3.35 2.01 -1.7 1.02 0 0 Z " fill="#F4EDAD" transform="translate(266,365)"/>
<path d="M0 0 C0.33 0 0.66 0 1 0 C2.76560568 7.02431613 3.70311937 11.59075494 0 18 C-0.33 18 -0.66 18 -1 18 C-1.09945415 11.88909517 -1.0712828 6.02596573 0 0 Z " fill="#DBAF54" transform="translate(392,622)"/>
<path d="M0 0 C0.99 0.33 1.98 0.66 3 1 C3 1.66 3 2.32 3 3 C3.66 3 4.32 3 5 3 C5 4.32 5 5.64 5 7 C3.02 7.99 3.02 7.99 1 9 C-1 6 -1 6 -0.625 2.8125 C-0.41875 1.884375 -0.2125 0.95625 0 0 Z " fill="#F9F2A4" transform="translate(761,371)"/>
<path d="M0 0 C0.66 0 1.32 0 2 0 C0.22054913 4.04420651 -2.39529673 7.46078487 -5 11 C-6.32 10.34 -7.64 9.68 -9 9 C-6.19195732 6.03595495 -3.81684226 3.55500981 0 2 C0 1.34 0 0.68 0 0 Z " fill="#DDCF8A" transform="translate(550,216)"/>
<path d="M0 0 C0.33 0 0.66 0 1 0 C1.84023188 4.35332736 2.10770995 8.44442519 2.0625 12.875 C2.05347656 14.02742187 2.04445313 15.17984375 2.03515625 16.3671875 C2.02355469 17.23601563 2.01195312 18.10484375 2 19 C-0.64997034 16.35684192 -0.9969914 15.14884659 -1.07421875 11.328125 C-0.96191582 9.96727774 -0.832515 8.60775103 -0.6875 7.25 C-0.62626953 6.55261719 -0.56503906 5.85523438 -0.50195312 5.13671875 C-0.34937092 3.42310319 -0.17666411 1.7113005 0 0 Z " fill="#D7AA52" transform="translate(629,614)"/>
<path d="M0 0 C4.04420651 1.77945087 7.46078487 4.39529673 11 7 C9.02 7.99 9.02 7.99 7 9 C4.03595495 6.19195732 1.55500981 3.81684226 0 0 Z " fill="#DACD8D" transform="translate(471,216)"/>
<path d="M0 0 C-0.75 5.75 -0.75 5.75 -3 8 C-3.33 7.34 -3.66 6.68 -4 6 C-4.99 6.495 -4.99 6.495 -6 7 C-5.39816251 4.97954558 -4.72693904 2.97888961 -4 1 C-2 0 -2 0 0 0 Z " fill="#D3A246" transform="translate(244,399)"/>
<path d="M0 0 C0 3.60573896 -0.81707462 4.41336566 -3 7.1875 C-3.556875 7.90292969 -4.11375 8.61835938 -4.6875 9.35546875 C-5.120625 9.89816406 -5.55375 10.44085938 -6 11 C-6.71484375 9.234375 -6.71484375 9.234375 -7 7 C-5.56640625 5.078125 -5.56640625 5.078125 -3.5625 3.25 C-2.90378906 2.63640625 -2.24507813 2.0228125 -1.56640625 1.390625 C-1.04949219 0.93171875 -0.53257812 0.4728125 0 0 Z " fill="#E8DD96" transform="translate(276,350)"/>
<path d="M0 0 C0 0.66 0 1.32 0 2 C-3.9813783 3.3271261 -7.85045227 3.06915913 -12 3 C-8.2391768 -0.7608232 -5.0273023 -0.25136512 0 0 Z " fill="#A29663" transform="translate(595,256)"/>
<path d="M0 0 C0.66 0 1.32 0 2 0 C1.14285714 8.57142857 1.14285714 8.57142857 -1 12 C-2.36884358 7.48281619 -1.47075246 4.41225737 0 0 Z " fill="#EEBF59" transform="translate(512,586)"/>
<path d="M0 0 C1.32 0.33 2.64 0.66 4 1 C1.36 3.64 -1.28 6.28 -4 9 C-4.66 8.67 -5.32 8.34 -6 8 C-4.73046875 6.50260417 -3.4609375 5.00520833 -2.19140625 3.5078125 C-0.9121848 1.99405921 -0.9121848 1.99405921 0 0 Z " fill="#D8C56C" transform="translate(478,294)"/>
<path d="M0 0 C2.625 -0.1875 2.625 -0.1875 5 0 C2.42215154 2.64752004 0.08351902 4.94432065 -3 7 C-2.38722388 4.03824877 -1.74627478 2.61941217 0 0 Z " fill="#E1C466" transform="translate(494,280)"/>
<path d="M0 0 C-0.33 2.31 -0.66 4.62 -1 7 C-1.99 6.67 -2.98 6.34 -4 6 C-3.625 3.5625 -3.625 3.5625 -3 1 C-1 0 -1 0 0 0 Z " fill="#FCE071" transform="translate(511,578)"/>
<path d="M0 0 C1.64826111 2.96687001 2.44271087 5.65626525 3 9 C1.02 8.01 -0.96 7.02 -3 6 C-2.67 5.34 -2.34 4.68 -2 4 C-1.34 4 -0.68 4 0 4 C0 2.68 0 1.36 0 0 Z " fill="#D0A343" transform="translate(610,543)"/>
<path d="M0 0 C3.34998521 1.11666174 3.79340222 1.74694925 5.6875 4.5625 C6.12449219 5.20316406 6.56148437 5.84382813 7.01171875 6.50390625 C7.33785156 6.99761719 7.66398438 7.49132812 8 8 C7.01 8.33 6.02 8.66 5 9 C4.16094435 7.87926138 3.32892169 6.75325453 2.5 5.625 C2.0359375 4.99851562 1.571875 4.37203125 1.09375 3.7265625 C0 2 0 2 0 0 Z " fill="#CDBB76" transform="translate(744,348)"/>
<path d="M0 0 C0.33 0 0.66 0 1 0 C1.125 3.375 1.125 3.375 1 7 C0.34 7.66 -0.32 8.32 -1 9 C-1.625 5.625 -1.625 5.625 -2 2 C-1.34 1.34 -0.68 0.68 0 0 Z " fill="#FBDA73" transform="translate(511,584)"/>
<path d="M0 0 C0.99 0 1.98 0 3 0 C3.33 2.31 3.66 4.62 4 7 C3.34 7 2.68 7 2 7 C0.5393715 4.35261084 0 3.10551666 0 0 Z " fill="#D8A645" transform="translate(778,396)"/>
<path d="M0 0 C0.33 0.66 0.66 1.32 1 2 C0.22265625 3.9453125 0.22265625 3.9453125 -0.9375 6.125 C-1.31777344 6.84945313 -1.69804687 7.57390625 -2.08984375 8.3203125 C-2.39019531 8.87460937 -2.69054687 9.42890625 -3 10 C-3.66 10 -4.32 10 -5 10 C-3.66511872 6.40608886 -2.03977277 3.24509304 0 0 Z " fill="#AA8032" transform="translate(250,383)"/>
<path d="M0 0 C1.98 0.495 1.98 0.495 4 1 C3.34 2.65 2.68 4.3 2 6 C1.01 6 0.02 6 -1 6 C-0.67 4.02 -0.34 2.04 0 0 Z " fill="#F6E798" transform="translate(540,225)"/>
<path d="M0 0 C0.66 0 1.32 0 2 0 C1.67 2.64 1.34 5.28 1 8 C0.34 8 -0.32 8 -1 8 C-0.67 5.36 -0.34 2.72 0 0 Z " fill="#C9C27E" transform="translate(775,494)"/>
</svg>
